<?xml version="1.0" encoding="UTF-8"?>
<svg id="Layer_1" data-name="Layer 1" xmlns="http://www.w3.org/2000/svg" viewBox="0 0 141 22.69">
  <defs>
    <style>
      .cls-1 {
        stroke: #010101;
        stroke-miterlimit: 10;
        stroke-width: .25px;
      }

      .cls-2, .cls-3, .cls-4, .cls-5, .cls-6 {
        stroke-width: 0px;
      }

      .cls-3 {
        fill: #f04c23;
      }

      .cls-4 {
        fill: #5fbb46;
      }

      .cls-5 {
        fill: #b92a25;
      }

      .cls-6 {
        fill: #318d43;
      }
    </style>
  </defs>
  <g>
    <path class="cls-4" d="m19,20.79H4.14c-.85-.85-1.33-1.33-2.19-2.19V3.74l2.19-2.19h14.86l2.19,2.19v14.86l-2.19,2.19Z"/>
    <path class="cls-6" d="m19.02,21.2H3.96l-2.33-2.33V3.82L3.96,1.49h15.06l2.33,2.33v15.06l-2.33,2.33Zm-14.86-.48h14.66l2.04-2.04V4.01l-2.04-2.04H4.16l-2.04,2.04v14.66l2.04,2.04Z"/>
    <g>
      <path class="cls-1" d="m14.81,11.2l-.24.81.6.6c-.15.29-.34.56-.55.81l-.78-.33-.67.52.13.84c-.29.14-.6.26-.92.33l-.43-.73-.84.02-.39.76c-.33-.06-.64-.15-.94-.28l.08-.85-.7-.48-.76.38c-.23-.24-.43-.5-.6-.78l.56-.64-.28-.79-.84-.14c-.02-.15-.04-.31-.04-.47,0-.17,0-.34.02-.51l.83-.19.24-.81-.59-.61c.15-.29.34-.56.55-.81l.29.13,1.21,1.21c-.34.39-.54.9-.54,1.46,0,1.23,1,2.23,2.23,2.23s2.23-1,2.23-2.23c0-.5-.17-.97-.45-1.34l1.43-1.43c.15.18.29.37.41.57l-.56.64.28.79.84.14c.02.16.04.32.04.48,0,.17,0,.33-.01.5l-.83.19Z"/>
      <g>
        <path class="cls-3" d="m18.29,3.35h0s-.57-.57-.57-.57h0s-.47,0-.47,0h0s-5.73,5.73-5.73,5.73l-.03.04-1.72-1.72-1.24-1.24-1.68-1.68h0s0,0,0,0l-.89-.89-.24-.24h0s-.47,0-.47,0h0s0,0,0,0l-.56.57-1.34,1.33v12.48l1.9,1.9h2.57c.22.5.72.85,1.31.85.79,0,1.43-.64,1.43-1.43s-.64-1.43-1.43-1.43c-.59,0-1.1.36-1.32.88h-2.09l-1.24-1.24V5.15l1-1h0s0,0,0,0l5.21,5.21.8.8.56-.56.23-.24,3.69-3.69,1.51-1.51h0s0,0,0,0l1,1v11.54l-1.24,1.24h-2.12c-.22-.52-.73-.88-1.32-.88-.79,0-1.43.64-1.43,1.43s.64,1.43,1.43,1.43c.58,0,1.08-.35,1.31-.85h2.61l1.9-1.9V4.68l-1.33-1.33Zm-9.16,14.28c.47,0,.85.38.85.85s-.38.85-.85.85-.85-.38-.85-.85.38-.85.85-.85Zm4.68,1.7c-.47,0-.85-.38-.85-.85s.38-.85.85-.85.85.38.85.85-.38.85-.85.85Z"/>
        <path class="cls-5" d="m13.82,19.99c-.83,0-1.51-.68-1.51-1.51s.68-1.51,1.51-1.51c.59,0,1.13.34,1.37.88h2.04l1.19-1.19V5.18l-.92-.92-6,6-6.01-6.01-.93.92v11.48l1.19,1.19h2.01c.25-.54.78-.88,1.37-.88.83,0,1.51.68,1.51,1.51s-.68,1.51-1.51,1.51c-.58,0-1.11-.33-1.36-.85h-2.56l-1.95-1.95V4.65l1.95-1.95h.55s.25.26.25.26l1.03,1.03h0l4.45,4.45,5.74-5.74h.54s.01.02.01.02l.57.57h0s1.36,1.36,1.36,1.36v12.54l-1.95,1.95h-2.59c-.25.52-.78.85-1.36.85Zm0-2.86c-.75,0-1.35.61-1.35,1.35s.61,1.35,1.35,1.35c.53,0,1.02-.32,1.23-.81l.02-.05h2.62l1.85-1.85V4.71l-1.85-1.85h-.4s-5.8,5.8-5.8,5.8L6.66,3.83h0l-.97-.97h-.4s-1.85,1.85-1.85,1.85v12.41l1.85,1.85h2.59l.02.05c.22.49.7.81,1.23.81.75,0,1.35-.61,1.35-1.35s-.61-1.35-1.35-1.35c-.55,0-1.04.33-1.25.83l-.02.05h-2.18l-1.28-1.28V5.12l1.08-1.08.06.06,5.95,5.95,5.99-5.99.07.05,1.03,1.03v11.61l-1.28,1.28h-2.21l-.02-.05c-.21-.51-.7-.83-1.25-.83Zm-4.68,2.29c-.52,0-.93-.42-.93-.93s.42-.93.93-.93.93.42.93.93-.42.93-.93.93Zm0-1.71c-.43,0-.77.35-.77.77s.35.77.77.77.77-.35.77-.77-.35-.77-.77-.77Zm4.68,1.7c-.51,0-.93-.42-.93-.93s.42-.93.93-.93.93.42.93.93-.42.93-.93.93Zm0-1.69c-.42,0-.77.34-.77.77s.34.77.77.77.77-.34.77-.77-.34-.77-.77-.77Z"/>
      </g>
    </g>
  </g>
  <g>
    <path class="cls-2" d="m30.71,17.62l-4.85-10.57v8.39c0,.77.08,1.25.25,1.44.23.26.59.39,1.08.39h.44v.34h-4.37v-.34h.44c.53,0,.91-.16,1.13-.48.14-.19.2-.64.2-1.35V7.24c0-.54-.06-.94-.18-1.2-.04-.09-.1-.18-.18-.25-.07-.08-.17-.14-.3-.2-.13-.06-.28-.1-.46-.13-.18-.03-.4-.05-.66-.05v-.34h3.56l4.56,9.83,4.48-9.83h3.56v.34h-.44c-.54,0-.92.16-1.14.48-.14.19-.2.64-.2,1.35v8.21c0,.77.09,1.25.26,1.44.23.26.59.39,1.08.39h.44v.34h-5.33v-.34h.44c.53,0,.91-.16,1.13-.48.14-.19.2-.64.2-1.35V7.06l-4.84,10.57h-.31Z"/>
    <path class="cls-2" d="m48.47,13.42h-4.86l-.85,1.98c-.21.48-.31.85-.31,1.09,0,.1.02.19.05.27.03.08.1.16.21.23.1.07.25.13.44.18.19.05.44.08.75.11v.34h-3.95v-.34c.52-.09.86-.21,1.02-.36.16-.15.33-.37.5-.67.17-.3.35-.68.55-1.13l4.42-10.33h.32l4.37,10.45c.18.43.34.78.5,1.04.15.26.31.47.47.61.16.14.33.24.52.3s.41.09.67.1v.34h-4.95v-.34c.25-.01.45-.04.62-.08.17-.04.3-.1.39-.17.1-.07.16-.14.2-.23.04-.09.06-.18.06-.29,0-.14-.02-.31-.09-.52s-.16-.47-.28-.76l-.76-1.81Zm-.26-.69l-2.13-5.07-2.19,5.07h4.32Z"/>
    <path class="cls-2" d="m62.34,5.07v2.94h-.21c-.05-.39-.13-.73-.25-1s-.26-.5-.45-.67c-.19-.17-.41-.29-.68-.37-.27-.08-.57-.12-.93-.12h-1.77v9.59c0,.77.08,1.25.25,1.44.23.26.59.39,1.08.39h.44v.34h-5.32v-.34h.44c.53,0,.91-.16,1.13-.48.14-.19.2-.64.2-1.35V5.85h-1.51c-.38,0-.72.03-1,.08-.28.06-.53.16-.72.31-.2.15-.36.37-.48.66-.12.28-.22.65-.28,1.1h-.35v-2.94h10.4Z"/>
    <path class="cls-2" d="m68.6,10.66l4.63,4.6c.76.76,1.41,1.28,1.94,1.56.54.27,1.08.43,1.61.46v.34h-5.97v-.34c.36,0,.62-.06.77-.18.16-.12.24-.25.24-.4,0-.07,0-.14,0-.2,0-.06-.03-.12-.07-.19s-.1-.15-.19-.26c-.09-.1-.22-.24-.39-.41l-4.33-4.29v4.05c0,.3,0,.54.02.72.01.19.04.34.07.45.03.12.08.21.15.28.07.07.16.14.27.2.27.15.55.22.84.22h.43v.34h-5.35v-.34h.44c.52,0,.9-.15,1.13-.45.15-.19.22-.67.22-1.43V7.29c0-.28,0-.52-.01-.7,0-.19-.03-.34-.07-.46-.04-.12-.09-.22-.15-.29s-.15-.14-.26-.2c-.27-.15-.56-.22-.85-.22h-.44v-.34h5.35v.34h-.43c-.12,0-.24.01-.37.04-.13.02-.25.06-.36.12-.11.05-.22.12-.31.2s-.16.18-.2.3c-.07.2-.11.6-.11,1.22v3.84c.24-.2.52-.44.82-.72.31-.28.63-.58.95-.9.32-.31.65-.63.96-.94.32-.32.61-.61.87-.88.26-.27.48-.5.65-.7.18-.2.29-.33.34-.4.17-.25.25-.46.25-.65,0-.14-.06-.27-.19-.38-.13-.11-.35-.16-.66-.16h-.29v-.34h4.61v.34c-.27.01-.52.05-.74.11-.11.04-.23.09-.37.15-.14.06-.29.15-.45.25s-.34.23-.54.38c-.19.15-.41.34-.64.55l-3.8,3.81Z"/>
    <path class="cls-2" d="m83.55,4.78c1.62,0,3.03.62,4.23,1.86,1.2,1.23,1.8,2.78,1.8,4.63s-.6,3.49-1.81,4.75c-1.2,1.26-2.66,1.89-4.37,1.89s-3.19-.61-4.36-1.84-1.76-2.82-1.76-4.77.68-3.62,2.04-4.88c1.18-1.09,2.59-1.64,4.23-1.64Zm-.18.68c-.64,0-1.2.14-1.69.41-.49.27-.91.66-1.25,1.16-.34.5-.59,1.11-.77,1.83-.18.72-.26,1.52-.26,2.41s.09,1.69.26,2.43.43,1.37.76,1.89c.34.53.75.94,1.25,1.23.49.29,1.07.44,1.71.44.58,0,1.12-.11,1.62-.33.5-.22.93-.57,1.29-1.03.36-.47.65-1.06.86-1.78.21-.72.31-1.58.31-2.58s-.08-1.81-.25-2.56c-.17-.75-.43-1.38-.77-1.9s-.77-.92-1.28-1.19c-.51-.27-1.1-.41-1.78-.41Z"/>
    <path class="cls-2" d="m101.26,5.07v2.94h-.21c-.05-.39-.13-.73-.25-1-.11-.27-.26-.5-.45-.67-.18-.17-.41-.29-.68-.37-.26-.08-.57-.12-.93-.12h-1.77v9.59c0,.77.08,1.25.25,1.44.23.26.59.39,1.08.39h.43v.34h-5.32v-.34h.44c.53,0,.91-.16,1.13-.48.14-.19.2-.64.2-1.35V5.85h-1.51c-.38,0-.72.03-1,.08s-.52.16-.72.31c-.2.15-.36.37-.48.66-.12.28-.22.65-.28,1.1h-.35v-2.94h10.4Z"/>
    <path class="cls-2" d="m105.82,5.75v4.96h2.76c.4,0,.73-.04.98-.11s.45-.18.59-.33.24-.34.3-.57.09-.5.11-.82h.34v4.37h-.34c-.04-.31-.09-.56-.13-.75-.04-.19-.09-.33-.13-.42-.06-.11-.13-.21-.21-.29-.09-.08-.2-.16-.33-.22-.14-.06-.3-.11-.49-.14-.19-.03-.42-.05-.68-.05h-2.76v4.14c0,.55.02.89.07,1.02.02.05.06.11.09.16.04.05.09.09.16.13s.16.06.28.08c.11.02.26.03.43.03h2.13c.36,0,.67-.01.91-.03.24-.02.46-.06.64-.11.18-.05.34-.13.48-.22s.29-.22.44-.37c.19-.18.39-.42.58-.71.2-.29.4-.63.59-1.02h.37l-1.08,3.15h-9.68v-.34h.44c.12,0,.24-.01.37-.04s.25-.06.37-.12c.11-.05.22-.12.31-.21.09-.08.16-.18.19-.29.07-.19.11-.6.11-1.21V7.25c0-.79-.08-1.28-.24-1.47-.22-.25-.59-.37-1.11-.37h-.44v-.34h9.68v2.75h-.22c-.07-.33-.14-.61-.2-.82-.07-.22-.15-.39-.23-.54-.09-.14-.18-.25-.3-.34-.11-.08-.24-.16-.4-.23-.25-.09-.69-.14-1.31-.14h-3.44Z"/>
    <path class="cls-2" d="m124.84,4.78l.29,4.27h-.29c-.19-.64-.42-1.18-.7-1.64-.27-.46-.59-.83-.94-1.12-.35-.29-.74-.5-1.17-.64-.43-.14-.89-.2-1.39-.2-.84,0-1.58.21-2.23.62-.65.41-1.16,1.04-1.55,1.89-.21.47-.37,1-.48,1.6s-.17,1.26-.17,2c0,1.13.18,2.11.55,2.95.18.43.42.8.7,1.12.28.32.6.59.96.81.36.22.75.38,1.17.49.42.11.86.17,1.32.17.52,0,.97-.05,1.34-.16s.72-.26,1.03-.48c.31-.22.61-.49.89-.81.29-.33.6-.71.95-1.15l.29.19c-.31.56-.65,1.04-1.02,1.44-.36.41-.76.74-1.18,1.01s-.89.46-1.38.59c-.5.13-1.03.19-1.61.19-2.09,0-3.7-.77-4.83-2.31-.85-1.15-1.28-2.5-1.28-4.06,0-.75.1-1.47.31-2.17.2-.7.52-1.35.94-1.94.3-.42.63-.79,1.01-1.13.38-.33.79-.61,1.23-.83.44-.23.91-.4,1.39-.51.49-.12.99-.18,1.5-.18.91,0,1.8.22,2.69.67.27.14.46.21.56.2.2,0,.36-.08.5-.25.13-.16.23-.37.28-.62h.32Z"/>
    <path class="cls-2" d="m129.95,10.89h5.83v-3.59c0-.3,0-.54-.02-.72-.01-.19-.04-.34-.07-.46s-.08-.22-.15-.29-.16-.14-.27-.2c-.27-.15-.55-.22-.84-.22h-.44v-.34h5.38v.34h-.45c-.12,0-.24.01-.37.04-.13.02-.25.06-.37.12-.12.06-.22.12-.31.21-.09.08-.16.18-.2.3-.07.2-.1.61-.1,1.22v8.1c0,.3,0,.54.02.72.01.19.04.34.07.46.03.12.08.21.15.28s.15.13.26.19c.27.15.55.22.85.22h.44v.34h-5.37v-.34h.44c.51,0,.88-.15,1.12-.45.15-.19.23-.67.23-1.43v-3.82h-5.83v3.82c0,.3,0,.54.02.72.01.19.03.34.07.45.03.12.08.21.15.28s.16.14.27.2c.26.15.55.22.84.22h.45v.34h-5.38v-.34h.44c.52,0,.9-.15,1.13-.45.15-.19.22-.67.22-1.43V7.3c0-.3,0-.54-.02-.72s-.04-.34-.07-.46-.08-.22-.15-.29-.15-.14-.26-.2c-.27-.15-.56-.22-.85-.22h-.44v-.34h5.38v.34h-.45c-.12,0-.25.01-.37.04-.13.02-.25.06-.36.12-.11.06-.22.12-.3.21-.09.08-.16.18-.2.3-.07.2-.11.6-.11,1.22v3.59Z"/>
  </g>
</svg>